<svg xmlns="http://www.w3.org/2000/svg" xmlns:xlink="http://www.w3.org/1999/xlink" width="2000" zoomAndPan="magnify" viewBox="0 0 1500 749.999995" height="1000" preserveAspectRatio="xMidYMid meet" version="1.0"><defs><g/><clipPath id="b8b42ba0ee"><path d="M 1085 95.167969 L 1388 95.167969 L 1388 318.585938 L 1085 318.585938 Z M 1085 95.167969 " clip-rule="nonzero"/></clipPath><clipPath id="987266984f"><path d="M 997.570312 95.167969 L 1072 95.167969 L 1072 121 L 997.570312 121 Z M 997.570312 95.167969 " clip-rule="nonzero"/></clipPath></defs><g fill="#171616" fill-opacity="1"><g transform="translate(1049.804066, 705.938544)"><g><path d="M 182.46875 -344.046875 C 206.3125 -344.046875 228.867188 -339.570312 250.140625 -330.625 C 271.410156 -321.6875 290.09375 -309.363281 306.1875 -293.65625 C 322.289062 -277.957031 335.113281 -259.570312 344.65625 -238.5 C 354.195312 -217.4375 359.164062 -194.976562 359.5625 -171.125 L 212.28125 -171.125 C 211.476562 -178.6875 208.296875 -184.953125 202.734375 -189.921875 C 197.171875 -194.890625 190.414062 -197.375 182.46875 -197.375 C 174.113281 -197.375 166.953125 -194.390625 160.984375 -188.421875 C 155.023438 -182.460938 152.046875 -175.304688 152.046875 -166.953125 C 152.046875 -158.609375 155.023438 -151.453125 160.984375 -145.484375 C 166.953125 -139.523438 174.113281 -136.546875 182.46875 -136.546875 C 190.414062 -136.546875 197.171875 -139.03125 202.734375 -144 C 208.296875 -148.96875 211.476562 -155.226562 212.28125 -162.78125 L 359.5625 -162.78125 C 359.164062 -138.9375 354.195312 -116.476562 344.65625 -95.40625 C 335.113281 -74.332031 322.289062 -55.742188 306.1875 -39.640625 C 290.09375 -23.546875 271.410156 -10.925781 250.140625 -1.78125 C 228.867188 7.351562 206.3125 11.921875 182.46875 11.921875 C 158.21875 11.921875 135.359375 7.253906 113.890625 -2.078125 C 92.421875 -11.421875 73.535156 -24.34375 57.234375 -40.84375 C 40.941406 -57.34375 28.222656 -76.421875 19.078125 -98.078125 C 9.929688 -119.742188 5.359375 -142.703125 5.359375 -166.953125 C 5.359375 -191.597656 9.929688 -214.554688 19.078125 -235.828125 C 28.222656 -257.097656 40.941406 -275.878906 57.234375 -292.171875 C 73.535156 -308.472656 92.421875 -321.191406 113.890625 -330.328125 C 135.359375 -339.472656 158.21875 -344.046875 182.46875 -344.046875 Z M 182.46875 -344.046875 "/></g></g></g><g fill="#171616" fill-opacity="1"><g transform="translate(32.793963, 595.919479)"><g><path d="M 225.890625 -286.234375 C 225.890625 -263.398438 233.632812 -244.234375 249.125 -228.734375 C 264.625 -213.242188 283.789062 -205.5 306.625 -205.5 C 328.363281 -205.5 346.84375 -212.429688 362.0625 -226.296875 C 377.289062 -240.160156 385.722656 -257.691406 387.359375 -278.890625 L 607.53125 -278.890625 C 606.988281 -238.117188 598.695312 -199.925781 582.65625 -164.3125 C 566.625 -128.707031 544.878906 -97.3125 517.421875 -70.125 C 489.972656 -42.945312 458.304688 -21.742188 422.421875 -6.515625 C 386.535156 8.703125 348.207031 16.3125 307.4375 16.3125 C 266.113281 16.3125 227.238281 8.429688 190.8125 -7.328125 C 154.394531 -23.097656 122.320312 -44.847656 94.59375 -72.578125 C 66.863281 -100.304688 45.253906 -132.378906 29.765625 -168.796875 C 14.273438 -205.222656 6.53125 -244.097656 6.53125 -285.421875 C 6.53125 -327.285156 14.273438 -366.425781 29.765625 -402.84375 C 45.253906 -439.269531 66.863281 -471.207031 94.59375 -498.65625 C 122.320312 -526.113281 154.394531 -547.726562 190.8125 -563.5 C 227.238281 -579.269531 266.113281 -587.15625 307.4375 -587.15625 C 348.207031 -587.15625 386.535156 -579.539062 422.421875 -564.3125 C 458.304688 -549.09375 489.972656 -528.023438 517.421875 -501.109375 C 544.878906 -474.203125 566.625 -442.941406 582.65625 -407.328125 C 598.695312 -371.722656 606.988281 -333.535156 607.53125 -292.765625 L 388.171875 -292.765625 C 386.535156 -313.960938 377.96875 -331.765625 362.46875 -346.171875 C 346.976562 -360.578125 328.363281 -367.78125 306.625 -367.78125 C 283.789062 -367.78125 264.625 -359.894531 249.125 -344.125 C 233.632812 -328.363281 225.890625 -309.066406 225.890625 -286.234375 Z M 225.890625 -286.234375 "/></g></g></g><path stroke-linecap="butt" transform="matrix(13.362427, 0, 0, 13.362427, 498.107741, -159.495954)" fill="none" stroke-linejoin="miter" d="M 30.506019 54.999999 L 17.759223 54.999999 L 17.759223 39.857844 C 17.759223 39.041656 17.555469 38.429807 17.147375 38.022006 C 16.739281 37.605142 16.25752 37.397002 15.702091 37.397002 C 15.155432 37.397002 14.677764 37.592279 14.269962 37.982833 C 13.861868 38.373387 13.658113 38.981143 13.658113 39.805516 L 13.658113 54.999999 L 0.533918 54.999999 L 0.533918 39.27172 C 0.533918 36.459497 0.967737 34.094248 1.83596 32.175973 C 2.712368 30.257697 3.888708 28.712436 5.364394 27.540774 C 6.839788 26.360342 8.471579 25.505274 10.259767 24.975863 C 12.056432 24.446452 13.879408 24.1816 15.728108 24.1816 C 17.221042 24.1816 18.696728 24.437682 20.154875 24.949846 C 21.613314 25.462009 22.945758 26.325555 24.152207 27.540774 C 25.185012 26.395129 26.456652 25.557309 27.967125 25.027898 C 29.477307 24.498487 30.961471 24.216387 32.419909 24.1816 C 34.303397 24.1816 36.15239 24.454929 37.966303 25.00188 C 39.780509 25.548832 41.425454 26.421147 42.900848 27.618827 C 44.376535 28.808029 45.556967 30.361767 46.442437 32.280042 C 47.336385 34.198318 47.783359 36.529072 47.783359 39.27172 L 47.783359 54.999999 L 34.659164 54.999999 L 34.659164 39.805516 C 34.659164 38.981143 34.446639 38.373387 34.021298 37.982833 C 33.595956 37.592279 33.114195 37.397002 32.576014 37.397002 C 32.046603 37.397002 31.569226 37.605142 31.143885 38.022006 C 30.718544 38.429807 30.506019 39.041656 30.506019 39.857844 Z M 30.506019 54.999999 " stroke="#ffffff" stroke-width="3.999998" stroke-opacity="1" stroke-miterlimit="4"/><g fill="#171616" fill-opacity="1"><g transform="translate(498.107741, 575.43752)"><g><path d="M 407.625 0 L 237.296875 0 L 237.296875 -202.390625 C 237.296875 -213.316406 234.5625 -221.507812 229.09375 -226.96875 C 223.632812 -232.4375 217.222656 -235.171875 209.859375 -235.171875 C 202.503906 -235.171875 196.09375 -232.554688 190.625 -227.328125 C 185.164062 -222.097656 182.4375 -214.019531 182.4375 -203.09375 L 182.4375 0 L 7.125 0 L 7.125 -210.21875 C 7.125 -247.75 12.941406 -279.34375 24.578125 -305 C 36.222656 -330.65625 51.898438 -351.320312 71.609375 -367 C 91.328125 -382.675781 113.179688 -394.078125 137.171875 -401.203125 C 161.171875 -408.328125 185.519531 -411.890625 210.21875 -411.890625 C 230.175781 -411.890625 249.894531 -408.445312 269.375 -401.5625 C 288.851562 -394.675781 306.664062 -383.15625 322.8125 -367 C 336.59375 -382.207031 353.578125 -393.375 373.765625 -400.5 C 393.960938 -407.625 413.800781 -411.421875 433.28125 -411.890625 C 458.457031 -411.890625 483.160156 -408.207031 507.390625 -400.84375 C 531.617188 -393.488281 553.585938 -381.851562 573.296875 -365.9375 C 593.015625 -350.019531 608.8125 -329.234375 620.6875 -303.578125 C 632.570312 -277.921875 638.515625 -246.800781 638.515625 -210.21875 L 638.515625 0 L 463.203125 0 L 463.203125 -203.09375 C 463.203125 -214.019531 460.351562 -222.097656 454.65625 -227.328125 C 448.957031 -232.554688 442.539062 -235.171875 435.40625 -235.171875 C 428.28125 -235.171875 421.867188 -232.4375 416.171875 -226.96875 C 410.472656 -221.507812 407.625 -213.316406 407.625 -202.390625 Z M 407.625 0 "/></g></g></g><g clip-path="url(#b8b42ba0ee)"><path fill="#171616" d="M 1323.246094 275.445312 C 1310.804688 275.445312 1300.714844 285.53125 1300.714844 297.976562 C 1300.714844 310.417969 1310.804688 320.5 1323.246094 320.5 C 1335.6875 320.5 1345.777344 310.417969 1345.777344 297.976562 C 1345.777344 285.53125 1335.6875 275.445312 1323.246094 275.445312 Z M 1200.996094 275.445312 C 1188.554688 275.445312 1178.46875 285.53125 1178.46875 297.976562 C 1178.46875 310.417969 1188.554688 320.5 1200.996094 320.5 C 1213.4375 320.5 1223.527344 310.417969 1223.527344 297.976562 C 1223.527344 285.53125 1213.4375 275.445312 1200.996094 275.445312 Z M 1386.308594 166.78125 L 1362.097656 245.558594 C 1358.652344 256.777344 1346.226562 265.957031 1334.488281 265.957031 L 1190.324219 265.957031 C 1178.585938 265.957031 1168.980469 256.355469 1168.980469 244.617188 L 1168.980469 167.722656 C 1168.980469 167.546875 1169.03125 167.386719 1169.035156 167.214844 L 1133.960938 121.300781 L 1098.257812 121.300781 C 1091.082031 121.300781 1085.214844 115.433594 1085.214844 108.261719 C 1085.214844 101.085938 1091.082031 95.21875 1098.257812 95.21875 L 1139.261719 95.21875 C 1142.1875 95.21875 1144.871094 96.230469 1147.054688 97.878906 C 1148.523438 98.613281 1149.878906 99.691406 1151.019531 101.183594 L 1185.910156 146.855469 C 1187.335938 146.550781 1188.8125 146.378906 1190.324219 146.378906 L 1371.234375 146.378906 C 1382.972656 146.378906 1389.757812 155.558594 1386.308594 166.78125 " fill-opacity="1" fill-rule="nonzero"/></g><g clip-path="url(#987266984f)"><path fill="#171616" d="M 1058.78125 120.066406 L 1010.027344 120.066406 C 1003.191406 120.066406 997.601562 114.476562 997.601562 107.644531 C 997.601562 100.808594 1003.191406 95.21875 1010.027344 95.21875 L 1058.78125 95.21875 C 1065.613281 95.21875 1071.207031 100.808594 1071.207031 107.644531 C 1071.207031 114.476562 1065.613281 120.066406 1058.78125 120.066406 " fill-opacity="1" fill-rule="nonzero"/></g><path fill="#171616" d="M 1100.363281 158.019531 L 1060.84375 158.019531 C 1053.957031 158.019531 1048.324219 152.382812 1048.324219 145.5 C 1048.324219 138.613281 1053.957031 132.976562 1060.84375 132.976562 L 1100.363281 132.976562 C 1107.25 132.976562 1112.882812 138.613281 1112.882812 145.5 C 1112.882812 152.382812 1107.25 158.019531 1100.363281 158.019531 " fill-opacity="1" fill-rule="nonzero"/><path fill="#171616" d="M 1134.910156 195.875 L 1118.691406 195.875 C 1111.804688 195.875 1106.175781 190.238281 1106.175781 183.351562 C 1106.175781 176.46875 1111.804688 170.832031 1118.691406 170.832031 L 1134.910156 170.832031 C 1141.796875 170.832031 1147.429688 176.46875 1147.429688 183.351562 C 1147.429688 190.238281 1141.796875 195.875 1134.910156 195.875 " fill-opacity="1" fill-rule="nonzero"/></svg>